<svg width="326" height="197" viewBox="0 0 326 197" fill="none" xmlns="http://www.w3.org/2000/svg">
<path fill-rule="evenodd" clip-rule="evenodd" d="M295.188 7.96284C291.25 5.34369 286.476 3.81005 281.33 3.81005C276.169 3.81005 271.381 5.35285 267.436 7.98631L276.054 16.2975C277.601 15.6662 279.302 15.3171 281.088 15.3171C282.988 15.3171 284.792 15.7123 286.417 16.4221L295.188 7.96284ZM301.584 14.1837C304.227 17.949 305.77 22.4904 305.77 27.3796C305.77 40.3968 294.828 50.9492 281.33 50.9492C267.832 50.9492 256.889 40.3968 256.889 27.3796C256.889 22.5053 258.424 17.9765 261.052 14.218L269.461 22.3275C268.628 23.9758 268.16 25.8278 268.16 27.785C268.16 34.6709 273.948 40.2529 281.088 40.2529C288.228 40.2529 294.016 34.6709 294.016 27.785C294.016 25.9369 293.599 24.1827 292.851 22.6051L301.584 14.1837Z" fill="black"/>
<path d="M245.25 75.7266L237.762 60.0349H241.331L246.043 70.2215L250.77 60.0349H254.339L246.836 75.7266H245.25ZM261.979 72.1734C262.507 72.6411 263.468 72.8749 264.861 72.8749C266.365 72.8749 267.651 72.3463 268.719 71.289C268.851 71.1466 269.12 70.8315 269.527 70.3435L272.684 71.472C271.911 72.5394 271.352 73.246 271.006 73.5916C269.309 75.2894 267.26 76.1383 264.861 76.1383C262.472 76.1383 260.428 75.2894 258.73 73.5916C257.033 71.8939 256.184 69.8454 256.184 67.4461C256.184 65.0469 257.033 62.9983 258.73 61.3006C260.428 59.6028 262.472 58.7539 264.861 58.7539C266.914 58.7539 268.714 59.3741 270.259 60.6143C270.513 60.8278 270.762 61.0566 271.006 61.3006C271.108 61.4022 271.398 61.7225 271.876 62.2613L270.29 63.8625L261.979 72.1734ZM267.255 62.4138C266.899 62.1393 266.101 62.002 264.861 62.002C263.366 62.002 262.085 62.5358 261.018 63.6032C259.961 64.6605 259.432 65.9415 259.432 67.4461C259.432 68.6762 259.569 69.4743 259.844 69.8403L267.255 62.4138ZM279.5 62.1545C280.68 60.5584 282.128 59.7197 283.846 59.6384V62.917C282.698 62.978 281.783 63.3491 281.101 64.0302C280.075 65.0469 279.541 66.2566 279.5 67.6596V75.7266H276.344V60.0349H279.5V62.1545ZM294.048 75.7266L286.561 60.0349H290.129L294.841 70.2215L299.569 60.0349H303.137L295.634 75.7266H294.048ZM310.777 72.1734C311.306 72.6411 312.266 72.8749 313.659 72.8749C315.164 72.8749 316.45 72.3463 317.517 71.289C317.649 71.1466 317.919 70.8315 318.325 70.3435L321.482 71.472C320.709 72.5394 320.15 73.246 319.805 73.5916C318.107 75.2894 316.058 76.1383 313.659 76.1383C311.27 76.1383 309.227 75.2894 307.529 73.5916C305.831 71.8939 304.982 69.8454 304.982 67.4461C304.982 65.0469 305.831 62.9983 307.529 61.3006C309.227 59.6028 311.27 58.7539 313.659 58.7539C315.713 58.7539 317.512 59.3741 319.057 60.6143C319.312 60.8278 319.561 61.0566 319.805 61.3006C319.906 61.4022 320.196 61.7225 320.674 62.2613L319.088 63.8625L310.777 72.1734ZM316.053 62.4138C315.697 62.1393 314.899 62.002 313.659 62.002C312.165 62.002 310.884 62.5358 309.816 63.6032C308.759 64.6605 308.23 65.9415 308.23 67.4461C308.23 68.6762 308.368 69.4743 308.642 69.8403L316.053 62.4138Z" fill="black"/>
<path d="M13.8994 75.8587L10.07 84.4795L6.27916 75.8587H4.85518L9.3388 85.9805H10.7435L15.2464 75.8587H13.8994ZM21.2183 84.8644C19.3325 84.8644 17.9085 83.8637 17.4082 82.2281L25.7212 80.6117C25.625 77.7637 23.5852 75.7817 20.872 75.7817C17.9663 75.7817 15.8688 77.9177 15.8688 80.9196C15.8688 83.9215 18.0432 86.0767 21.1991 86.0767C22.7963 86.0767 24.1818 85.4994 25.0862 84.4218L24.3165 83.5366C23.566 84.4218 22.4691 84.8644 21.2183 84.8644ZM20.872 76.9555C22.7385 76.9555 24.0663 78.2063 24.3549 79.8612L17.2158 81.2467C17.1966 81.112 17.1966 80.9773 17.1966 80.8233C17.1966 78.5334 18.7167 76.9555 20.872 76.9555ZM29.8106 77.8407V75.8587H28.5021V85.9805H29.8684V80.8233C29.8684 78.4372 31.1576 77.0902 33.2744 77.0902C33.3706 77.0902 33.486 77.1095 33.6015 77.1095V75.7817C31.7349 75.7817 30.4456 76.4937 29.8106 77.8407ZM43.6659 75.8587L39.8365 84.4795L36.0457 75.8587H34.6217L39.1053 85.9805H40.51L45.0129 75.8587H43.6659ZM50.9848 84.8644C49.099 84.8644 47.675 83.8637 47.1747 82.2281L55.4877 80.6117C55.3915 77.7637 53.3517 75.7817 50.6385 75.7817C47.7328 75.7817 45.6353 77.9177 45.6353 80.9196C45.6353 83.9215 47.8097 86.0767 50.9656 86.0767C52.5628 86.0767 53.9483 85.4994 54.8527 84.4218L54.083 83.5366C53.3325 84.4218 52.2356 84.8644 50.9848 84.8644ZM50.6385 76.9555C52.505 76.9555 53.8328 78.2063 54.1214 79.8612L46.9823 81.2467C46.9631 81.112 46.9631 80.9773 46.9631 80.8233C46.9631 78.5334 48.4832 76.9555 50.6385 76.9555Z" fill="black"/>
<circle cx="30.7583" cy="33.4419" r="29.7583" fill="black"/>
<path d="M15.0656 0.806641V23.4854M64.4485 50.697H15.0656V23.4854M15.0656 23.4854C17.3421 19.4659 22.4073 14.8844 24.4562 28.7143C26.5051 42.5442 29.5072 42.5869 30.7522 40.8795C32.2462 39.6701 40.7925 35.3317 54.2189 10.0773" stroke="white" stroke-width="2.80296"/>
<circle cx="151.728" cy="28.0075" r="27.2009" fill="black"/>
<path d="M123.393 34.9967C126.053 30.3002 135.561 22.9256 137.954 39.0847C140.348 55.2438 146.155 49.3527 146.155 49.3527C146.155 49.3527 155.759 39.4089 176.607 0.806641" stroke="white" stroke-width="3.27503"/>
<path d="M128.136 69.6134H126.699L121.983 79.8883L117.299 69.6134H115.925L122.015 83.0739L128.136 69.6134ZM143.051 75.7971C143.051 73.9024 142.416 72.3617 141.146 71.1749C139.897 69.9881 138.314 69.3947 136.399 69.3947C134.462 69.3947 132.859 70.0298 131.589 71.2998C130.34 72.5491 129.715 74.1418 129.715 76.0782C129.715 77.9936 130.35 79.5864 131.62 80.8565C132.87 82.1265 134.462 82.7616 136.399 82.7616C137.211 82.7616 137.939 82.6575 138.585 82.4493C140.271 81.9079 141.521 80.8669 142.333 79.3262L141.177 78.7952C140.469 79.9404 139.668 80.7003 138.772 81.0751C138.064 81.3666 137.273 81.5123 136.399 81.5123C134.691 81.5123 133.348 80.9918 132.37 79.9508C131.433 78.9306 130.965 77.546 130.965 75.7971H143.051ZM141.614 74.5791H131.152C131.985 71.9557 133.734 70.644 136.399 70.644C137.669 70.644 138.793 70.9979 139.772 71.7058C140.792 72.4345 141.406 73.3923 141.614 74.5791ZM152.802 70.4566C152.282 70.0818 151.813 69.8216 151.397 69.6758C150.98 69.5301 150.45 69.4572 149.804 69.4572C149.284 69.4572 148.805 69.655 148.367 70.0506C147.93 70.4462 147.576 70.8834 147.306 71.3623V69.6134H146.025V82.5117H147.306V74.0169C147.306 73.6838 147.368 73.3194 147.493 72.9238C147.639 72.5282 147.826 72.1743 148.055 71.862C148.284 71.5288 148.555 71.2582 148.867 71.05C149.179 70.8209 149.513 70.7064 149.867 70.7064C150.283 70.7064 150.679 70.7793 151.053 70.9251C151.428 71.0708 151.782 71.2686 152.115 71.5184L152.802 70.4566ZM166.687 69.6134H165.25L160.534 79.8883L155.849 69.6134H154.475L160.565 83.0739L166.687 69.6134ZM181.602 75.7971C181.602 73.9024 180.967 72.3617 179.696 71.1749C178.447 69.9881 176.865 69.3947 174.949 69.3947C173.013 69.3947 171.41 70.0298 170.14 71.2998C168.891 72.5491 168.266 74.1418 168.266 76.0782C168.266 77.9936 168.901 79.5864 170.171 80.8565C171.42 82.1265 173.013 82.7616 174.949 82.7616C175.761 82.7616 176.49 82.6575 177.136 82.4493C178.822 81.9079 180.071 80.8669 180.883 79.3262L179.728 78.7952C179.02 79.9404 178.218 80.7003 177.323 81.0751C176.615 81.3666 175.824 81.5123 174.949 81.5123C173.242 81.5123 171.899 80.9918 170.921 79.9508C169.984 78.9306 169.515 77.546 169.515 75.7971H181.602ZM180.165 74.5791H169.703C170.535 71.9557 172.284 70.644 174.949 70.644C176.219 70.644 177.344 70.9979 178.322 71.7058C179.343 72.4345 179.957 73.3923 180.165 74.5791Z" fill="black"/>
<path d="M169.422 134.319C173.859 136.861 177.349 140.778 179.364 145.478C181.38 150.178 181.812 155.406 180.596 160.373C179.38 165.34 176.581 169.777 172.623 173.015C168.664 176.252 163.759 178.113 158.649 178.319C153.54 178.524 148.502 177.062 144.296 174.153C140.09 171.244 136.944 167.046 135.333 162.193C133.722 157.339 133.734 152.093 135.366 147.247C136.998 142.4 140.162 138.216 144.38 135.325L157.703 154.768L169.422 134.319Z" fill="black"/>
<path d="M186.695 148.339C187.223 148.807 188.184 149.041 189.577 149.041C191.081 149.041 192.367 148.512 193.435 147.455C193.567 147.313 193.836 146.997 194.243 146.51L197.4 147.638C196.627 148.705 196.068 149.412 195.722 149.758C194.024 151.455 191.976 152.304 189.577 152.304C187.188 152.304 185.144 151.455 183.446 149.758C181.749 148.06 180.9 146.011 180.9 143.612C180.9 141.213 181.749 139.164 183.446 137.467C185.144 135.769 187.188 134.92 189.577 134.92C191.63 134.92 193.43 135.54 194.975 136.78C195.229 136.994 195.478 137.223 195.722 137.467C195.824 137.568 196.114 137.888 196.591 138.427L195.005 140.028L186.695 148.339ZM191.971 138.58C191.615 138.305 190.817 138.168 189.577 138.168C188.082 138.168 186.801 138.702 185.734 139.769C184.677 140.827 184.148 142.108 184.148 143.612C184.148 144.842 184.285 145.64 184.56 146.006L191.971 138.58ZM204.216 138.321C205.395 136.724 206.844 135.886 208.562 135.804V139.083C207.413 139.144 206.499 139.515 205.817 140.196C204.791 141.213 204.257 142.423 204.216 143.826V151.893H201.06V136.201H204.216V138.321ZM218.764 151.893L211.277 136.201H214.845L219.557 146.388L224.284 136.201H227.853L220.35 151.893H218.764ZM235.493 148.339C236.021 148.807 236.982 149.041 238.375 149.041C239.88 149.041 241.166 148.512 242.233 147.455C242.365 147.313 242.635 146.997 243.041 146.51L246.198 147.638C245.425 148.705 244.866 149.412 244.521 149.758C242.823 151.455 240.774 152.304 238.375 152.304C235.986 152.304 233.942 151.455 232.245 149.758C230.547 148.06 229.698 146.011 229.698 143.612C229.698 141.213 230.547 139.164 232.245 137.467C233.942 135.769 235.986 134.92 238.375 134.92C240.429 134.92 242.228 135.54 243.773 136.78C244.027 136.994 244.277 137.223 244.521 137.467C244.622 137.568 244.912 137.888 245.39 138.427L243.804 140.028L235.493 148.339ZM240.769 138.58C240.413 138.305 239.615 138.168 238.375 138.168C236.881 138.168 235.6 138.702 234.532 139.769C233.475 140.827 232.946 142.108 232.946 143.612C232.946 144.842 233.083 145.64 233.358 146.006L240.769 138.58Z" fill="black"/>
<line x1="158.462" y1="152.984" x2="130.586" y2="141.548" stroke="white" stroke-width="2.56573"/>
<line x1="158.033" y1="153.349" x2="134.627" y2="134.374" stroke="white" stroke-width="3.20717"/>
<line x1="156.18" y1="153.239" x2="126.898" y2="146.132" stroke="white" stroke-width="1.9243"/>
<line x1="156.98" y1="154.064" x2="127.021" y2="150.848" stroke="white" stroke-width="1.28287"/>
<line x1="157.757" y1="154.438" x2="127.626" y2="154.438" stroke="white" stroke-width="0.641433"/>
<path d="M1 120.892L11.5461 186.177C14.1169 187.116 17.1724 187.719 22.1122 187.719L11.5461 120.892H1Z" fill="black"/>
<path d="M33.1318 185.819L45.1014 120.892H33.1318L22.1122 187.719C27.052 187.719 30.2819 187.149 33.1318 185.819Z" fill="black"/>
<path d="M11.5461 186.177L1 120.892H11.5461M11.5461 186.177V191.519M11.5461 186.177C14.1169 187.116 17.1724 187.719 22.1122 187.719M33.1318 185.819L45.1014 120.892H33.1318M33.1318 185.819V191.519M33.1318 185.819C30.2819 187.149 27.052 187.719 22.1122 187.719M11.5461 191.519C14.6248 193.299 23.2522 195.792 33.1318 191.519M11.5461 191.519V193.989C15.3215 195.635 24.9241 197.94 33.1318 193.989V191.519M11.5461 120.892L22.1122 187.719M11.5461 120.892H33.1318M22.1122 187.719L33.1318 120.892" stroke="black" stroke-width="0.762444"/>
<path d="M53.0501 151.266H52.1963L49.3935 157.372L46.6093 151.266H45.7926L49.4121 159.266L53.0501 151.266ZM61.9145 154.941C61.9145 153.815 61.5371 152.899 60.7823 152.194C60.0398 151.489 59.0994 151.136 57.9609 151.136C56.8101 151.136 55.8573 151.513 55.1025 152.268C54.36 153.011 53.9888 153.957 53.9888 155.108C53.9888 156.246 54.3662 157.193 55.121 157.948C55.8635 158.703 56.8101 159.08 57.9609 159.08C58.4435 159.08 58.8766 159.018 59.2602 158.895C60.2625 158.573 61.005 157.954 61.4876 157.038L60.8008 156.723C60.3801 157.403 59.9037 157.855 59.3716 158.078C58.9509 158.251 58.4806 158.338 57.9609 158.338C56.9462 158.338 56.1481 158.028 55.5665 157.41C55.0097 156.803 54.7312 155.98 54.7312 154.941H61.9145ZM61.0607 154.217H54.8426C55.3376 152.658 56.377 151.878 57.9609 151.878C58.7158 151.878 59.384 152.089 59.9656 152.509C60.5719 152.942 60.9369 153.512 61.0607 154.217ZM67.71 151.767C67.4007 151.544 67.1222 151.39 66.8748 151.303C66.6273 151.216 66.3117 151.173 65.9281 151.173C65.6188 151.173 65.3342 151.291 65.0743 151.526C64.8144 151.761 64.6041 152.021 64.4432 152.305V151.266H63.6822V158.932H64.4432V153.883C64.4432 153.685 64.4803 153.468 64.5546 153.233C64.6412 152.998 64.7526 152.788 64.8887 152.602C65.0248 152.404 65.1857 152.243 65.3713 152.12C65.5569 151.983 65.7549 151.915 65.9652 151.915C66.2127 151.915 66.4478 151.959 66.6706 152.045C66.8933 152.132 67.1037 152.25 67.3017 152.398L67.71 151.767ZM75.9619 151.266H75.108L72.3053 157.372L69.5211 151.266H68.7044L72.3238 159.266L75.9619 151.266ZM84.8263 154.941C84.8263 153.815 84.4488 152.899 83.694 152.194C82.9516 151.489 82.0111 151.136 80.8727 151.136C79.7219 151.136 78.769 151.513 78.0142 152.268C77.2718 153.011 76.9005 153.957 76.9005 155.108C76.9005 156.246 77.2779 157.193 78.0328 157.948C78.7752 158.703 79.7219 159.08 80.8727 159.08C81.3553 159.08 81.7884 159.018 82.172 158.895C83.1743 158.573 83.9167 157.954 84.3993 157.038L83.7126 156.723C83.2918 157.403 82.8154 157.855 82.2833 158.078C81.8626 158.251 81.3924 158.338 80.8727 158.338C79.858 158.338 79.0598 158.028 78.4783 157.41C77.9214 156.803 77.643 155.98 77.643 154.941H84.8263ZM83.9724 154.217H77.7544C78.2493 152.658 79.2888 151.878 80.8727 151.878C81.6275 151.878 82.2957 152.089 82.8773 152.509C83.4836 152.942 83.8487 153.512 83.9724 154.217Z" fill="black"/>
</svg>
